<svg xmlns="http://www.w3.org/2000/svg" xmlns:xlink="http://www.w3.org/1999/xlink" width="2000" zoomAndPan="magnify" viewBox="0 0 1500 1499.999933" height="2000" preserveAspectRatio="xMidYMid meet" version="1.0"><defs><g/><clipPath id="d206631e70"><path d="M 450 530 L 787 530 L 787 914.949219 L 450 914.949219 Z M 450 530 " clip-rule="nonzero"/></clipPath><clipPath id="d9aa2f25ff"><path d="M 522 315.699219 L 1050 315.699219 L 1050 682 L 522 682 Z M 522 315.699219 " clip-rule="nonzero"/></clipPath><clipPath id="1abe53fff9"><rect x="0" width="535" y="0" height="139"/></clipPath></defs><g clip-path="url(#d206631e70)"><path fill="#5e17eb" d="M 494.460938 914.691406 L 665.617188 914.691406 L 786.394531 630.300781 L 743.605469 530.117188 L 450.027344 530.117188 L 514.578125 681.285156 L 593.953125 681.285156 Z M 494.460938 914.691406 " fill-opacity="1" fill-rule="evenodd"/></g><g clip-path="url(#d9aa2f25ff)"><path fill="#5e17eb" d="M 976.578125 681.152344 L 1049.972656 509.695312 L 966.304688 315.699219 L 603.320312 315.699219 L 522.816406 466.867188 L 886.058594 466.867188 L 903.878906 508.527344 L 830.003906 681.285156 Z M 976.578125 681.152344 " fill-opacity="1" fill-rule="evenodd"/></g><g transform="matrix(1, 0, 0, 1, 493, 964)"><g clip-path="url(#1abe53fff9)"><g fill="#000000" fill-opacity="1"><g transform="translate(0.820996, 105.669575)"><g><path d="M 28.640625 -36.78125 L 28.640625 0 L 7.359375 0 L 7.359375 -102.46875 L 40.984375 -102.46875 C 45.191406 -102.46875 49.375 -102.070312 53.53125 -101.28125 C 57.695312 -100.5 61.53125 -99.035156 65.03125 -96.890625 C 68.53125 -94.742188 71.332031 -91.585938 73.4375 -87.421875 C 75.539062 -83.265625 76.59375 -77.769531 76.59375 -70.9375 L 76.59375 -68.3125 C 76.59375 -61.476562 75.539062 -55.984375 73.4375 -51.828125 C 71.332031 -47.671875 68.53125 -44.492188 65.03125 -42.296875 C 61.53125 -40.109375 57.695312 -38.640625 53.53125 -37.890625 C 49.375 -37.148438 45.191406 -36.78125 40.984375 -36.78125 Z M 28.640625 -55.171875 L 41.90625 -55.171875 C 43.832031 -55.171875 45.800781 -55.519531 47.8125 -56.21875 C 49.832031 -56.925781 51.539062 -58.265625 52.9375 -60.234375 C 54.34375 -62.203125 55.046875 -65.113281 55.046875 -68.96875 L 55.046875 -70.28125 C 55.046875 -74.132812 54.34375 -77.046875 52.9375 -79.015625 C 51.539062 -80.992188 49.832031 -82.332031 47.8125 -83.03125 C 45.800781 -83.726562 43.832031 -84.078125 41.90625 -84.078125 L 28.640625 -84.078125 Z M 28.640625 -55.171875 "/></g></g></g><g fill="#000000" fill-opacity="1"><g transform="translate(96.969805, 105.669575)"><g><path d="M 29.296875 -102.46875 L 29.296875 0 L 8.015625 0 L 8.015625 -102.46875 Z M 29.296875 -102.46875 "/></g></g></g><g fill="#000000" fill-opacity="1"><g transform="translate(150.300552, 105.669575)"><g><path d="M 66.46875 0 L 7.359375 0 L 7.359375 -102.46875 L 28.640625 -102.46875 L 28.640625 -18.390625 L 66.46875 -18.390625 Z M 66.46875 0 "/></g></g></g><g fill="#000000" fill-opacity="1"><g transform="translate(234.891106, 105.669575)"><g><path d="M 28.640625 -102.46875 L 28.640625 -62.265625 L 53.859375 -102.46875 L 79.609375 -102.46875 L 50.84375 -61.359375 L 79.609375 0 L 55.96875 0 L 37.3125 -41.90625 L 28.640625 -29.5625 L 28.640625 0 L 7.359375 0 L 7.359375 -102.46875 Z M 28.640625 -102.46875 "/></g></g></g><g fill="#000000" fill-opacity="1"><g transform="translate(333.141419, 105.669575)"><g/></g></g><g fill="#000000" fill-opacity="1"><g transform="translate(375.570615, 105.669575)"><g><path d="M 27.453125 -102.734375 L 56.75 -102.734375 L 82.375 0 L 59.640625 0 L 54.65625 -22.078125 L 29.5625 -22.078125 L 24.703125 0 L 1.84375 0 Z M 42.046875 -78.171875 L 33.625 -40.46875 L 50.453125 -40.46875 Z M 42.046875 -78.171875 "/></g></g></g><g fill="#000000" fill-opacity="1"><g transform="translate(475.922427, 105.669575)"><g><path d="M 29.296875 -102.46875 L 29.296875 0 L 8.015625 0 L 8.015625 -102.46875 Z M 29.296875 -102.46875 "/></g></g></g></g></g><g fill="#000000" fill-opacity="1"><g transform="translate(302.276315, 1151.051257)"><g><path d="M 19.546875 -41.21875 C 24.816406 -41.21875 28.628906 -39.628906 30.984375 -36.453125 C 33.335938 -33.285156 34.066406 -28.171875 33.171875 -21.109375 L 32.953125 -19.4375 C 32.367188 -14.757812 31.382812 -10.9375 30 -7.96875 C 28.613281 -5.007812 26.75 -2.828125 24.40625 -1.421875 C 22.0625 -0.0234375 19.125 0.671875 15.59375 0.671875 C 10.320312 0.671875 6.515625 -0.910156 4.171875 -4.078125 C 1.835938 -7.253906 1.101562 -12.375 1.96875 -19.4375 L 2.1875 -21.109375 C 2.769531 -25.816406 3.753906 -29.644531 5.140625 -32.59375 C 6.523438 -35.539062 8.394531 -37.710938 10.75 -39.109375 C 13.113281 -40.515625 16.046875 -41.21875 19.546875 -41.21875 Z M 15.546875 -6.609375 L 16.0625 -6.609375 C 18.625 -6.609375 20.519531 -7.722656 21.75 -9.953125 C 22.976562 -12.191406 23.851562 -15.351562 24.375 -19.4375 L 24.59375 -21.109375 C 25.113281 -25.191406 25.0625 -28.351562 24.4375 -30.59375 C 23.8125 -32.832031 22.195312 -33.953125 19.59375 -33.953125 L 19.078125 -33.953125 C 16.515625 -33.953125 14.617188 -32.832031 13.390625 -30.59375 C 12.160156 -28.351562 11.285156 -25.191406 10.765625 -21.109375 L 10.546875 -19.4375 C 10.023438 -15.351562 10.078125 -12.191406 10.703125 -9.953125 C 11.328125 -7.722656 12.941406 -6.609375 15.546875 -6.609375 Z M 15.546875 -6.609375 "/></g></g></g><g fill="#000000" fill-opacity="1"><g transform="translate(355.770344, 1151.051257)"><g><path d="M 5.671875 -40.546875 L 14.453125 -40.546875 L 24.21875 -15.390625 L 25.109375 -23.8125 L 27.296875 -40.546875 L 35.34375 -40.546875 L 30.046875 0 L 21.265625 0 L 11.484375 -25.15625 L 10.609375 -16.734375 L 8.421875 0 L 0.359375 0 Z M 5.671875 -40.546875 "/></g></g></g><g fill="#000000" fill-opacity="1"><g transform="translate(409.784221, 1151.051257)"><g><path d="M 5.671875 -40.546875 L 30.46875 -40.546875 L 29.53125 -33.265625 L 13.15625 -33.265625 L 11.953125 -24.328125 L 25.734375 -24.328125 L 24.796875 -17.046875 L 11.015625 -17.046875 L 9.71875 -7.28125 L 26.09375 -7.28125 L 25.15625 0 L 0.359375 0 Z M 5.671875 -40.546875 "/></g></g></g><g fill="#000000" fill-opacity="1"><g transform="translate(458.079818, 1151.051257)"><g/></g></g><g fill="#000000" fill-opacity="1"><g transform="translate(486.985223, 1151.051257)"><g><path d="M 14.5 -17 C 10.132812 -17.789062 7.066406 -19.203125 5.296875 -21.234375 C 3.535156 -23.265625 2.84375 -25.753906 3.21875 -28.703125 L 3.375 -29.890625 C 3.863281 -33.628906 5.351562 -36.453125 7.84375 -38.359375 C 10.34375 -40.265625 13.671875 -41.21875 17.828125 -41.21875 C 23.234375 -41.21875 27.050781 -40.039062 29.28125 -37.6875 C 31.519531 -35.332031 32.347656 -31.898438 31.765625 -27.390625 L 31.609375 -26.203125 L 23.1875 -26.203125 C 23.53125 -28.796875 23.320312 -30.734375 22.5625 -32.015625 C 21.800781 -33.304688 20.238281 -33.953125 17.875 -33.953125 L 17.359375 -33.953125 C 15.972656 -33.953125 14.769531 -33.601562 13.75 -32.90625 C 12.726562 -32.207031 12.128906 -31.21875 11.953125 -29.9375 L 11.859375 -29.15625 C 11.753906 -28.363281 11.851562 -27.628906 12.15625 -26.953125 C 12.46875 -26.273438 13.125 -25.675781 14.125 -25.15625 C 15.132812 -24.632812 16.613281 -24.1875 18.5625 -23.8125 C 22.75 -23.050781 25.8125 -21.664062 27.75 -19.65625 C 29.695312 -17.644531 30.460938 -15.046875 30.046875 -11.859375 L 29.890625 -10.65625 C 29.398438 -6.875 27.863281 -4.039062 25.28125 -2.15625 C 22.707031 -0.269531 19.289062 0.671875 15.03125 0.671875 C 9.894531 0.671875 6.101562 -0.460938 3.65625 -2.734375 C 1.21875 -5.003906 0.273438 -8.300781 0.828125 -12.625 L 0.984375 -13.828125 L 9.40625 -13.828125 C 9.0625 -11.222656 9.414062 -9.367188 10.46875 -8.265625 C 11.53125 -7.160156 13.03125 -6.609375 14.96875 -6.609375 L 15.484375 -6.609375 C 18.984375 -6.609375 20.925781 -7.941406 21.3125 -10.609375 L 21.421875 -11.390625 C 21.585938 -12.703125 21.191406 -13.828125 20.234375 -14.765625 C 19.285156 -15.703125 17.375 -16.445312 14.5 -17 Z M 14.5 -17 "/></g></g></g><g fill="#000000" fill-opacity="1"><g transform="translate(538.295903, 1151.051257)"><g><path d="M 20.484375 -33.265625 L 16.109375 0 L 7.6875 0 L 12.0625 -33.265625 L 2.703125 -33.265625 L 3.640625 -40.546875 L 30.828125 -40.546875 L 29.890625 -33.265625 Z M 20.484375 -33.265625 "/></g></g></g><g fill="#000000" fill-opacity="1"><g transform="translate(585.759766, 1151.051257)"><g><path d="M 19.546875 -41.21875 C 24.816406 -41.21875 28.628906 -39.628906 30.984375 -36.453125 C 33.335938 -33.285156 34.066406 -28.171875 33.171875 -21.109375 L 32.953125 -19.4375 C 32.367188 -14.757812 31.382812 -10.9375 30 -7.96875 C 28.613281 -5.007812 26.75 -2.828125 24.40625 -1.421875 C 22.0625 -0.0234375 19.125 0.671875 15.59375 0.671875 C 10.320312 0.671875 6.515625 -0.910156 4.171875 -4.078125 C 1.835938 -7.253906 1.101562 -12.375 1.96875 -19.4375 L 2.1875 -21.109375 C 2.769531 -25.816406 3.753906 -29.644531 5.140625 -32.59375 C 6.523438 -35.539062 8.394531 -37.710938 10.75 -39.109375 C 13.113281 -40.515625 16.046875 -41.21875 19.546875 -41.21875 Z M 15.546875 -6.609375 L 16.0625 -6.609375 C 18.625 -6.609375 20.519531 -7.722656 21.75 -9.953125 C 22.976562 -12.191406 23.851562 -15.351562 24.375 -19.4375 L 24.59375 -21.109375 C 25.113281 -25.191406 25.0625 -28.351562 24.4375 -30.59375 C 23.8125 -32.832031 22.195312 -33.953125 19.59375 -33.953125 L 19.078125 -33.953125 C 16.515625 -33.953125 14.617188 -32.832031 13.390625 -30.59375 C 12.160156 -28.351562 11.285156 -25.191406 10.765625 -21.109375 L 10.546875 -19.4375 C 10.023438 -15.351562 10.078125 -12.191406 10.703125 -9.953125 C 11.328125 -7.722656 12.941406 -6.609375 15.546875 -6.609375 Z M 15.546875 -6.609375 "/></g></g></g><g fill="#000000" fill-opacity="1"><g transform="translate(639.253795, 1151.051257)"><g><path d="M 10.703125 -14.5625 L 8.78125 0 L 0.359375 0 L 5.671875 -40.546875 L 19.34375 -40.546875 C 21.144531 -40.546875 22.84375 -40.351562 24.4375 -39.96875 C 26.03125 -39.59375 27.414062 -38.9375 28.59375 -38 C 29.769531 -37.0625 30.617188 -35.773438 31.140625 -34.140625 C 31.660156 -32.515625 31.765625 -30.457031 31.453125 -27.96875 L 31.296875 -26.765625 C 30.953125 -24.097656 30.273438 -21.957031 29.265625 -20.34375 C 28.265625 -18.738281 27.050781 -17.519531 25.625 -16.6875 C 24.207031 -15.851562 22.679688 -15.289062 21.046875 -15 C 19.421875 -14.707031 17.773438 -14.5625 16.109375 -14.5625 Z M 11.59375 -21.828125 L 16.890625 -21.828125 C 17.648438 -21.828125 18.453125 -21.945312 19.296875 -22.1875 C 20.148438 -22.4375 20.90625 -22.929688 21.5625 -23.671875 C 22.226562 -24.421875 22.648438 -25.523438 22.828125 -26.984375 L 22.921875 -27.765625 C 23.128906 -29.285156 23 -30.441406 22.53125 -31.234375 C 22.0625 -32.035156 21.4375 -32.570312 20.65625 -32.84375 C 19.882812 -33.125 19.113281 -33.265625 18.34375 -33.265625 L 13.15625 -33.265625 Z M 11.59375 -21.828125 "/></g></g></g><g fill="#000000" fill-opacity="1"><g transform="translate(689.420798, 1151.051257)"><g/></g></g><g fill="#000000" fill-opacity="1"><g transform="translate(718.326236, 1151.051257)"><g><path d="M 14.5 -17 C 10.132812 -17.789062 7.066406 -19.203125 5.296875 -21.234375 C 3.535156 -23.265625 2.84375 -25.753906 3.21875 -28.703125 L 3.375 -29.890625 C 3.863281 -33.628906 5.351562 -36.453125 7.84375 -38.359375 C 10.34375 -40.265625 13.671875 -41.21875 17.828125 -41.21875 C 23.234375 -41.21875 27.050781 -40.039062 29.28125 -37.6875 C 31.519531 -35.332031 32.347656 -31.898438 31.765625 -27.390625 L 31.609375 -26.203125 L 23.1875 -26.203125 C 23.53125 -28.796875 23.320312 -30.734375 22.5625 -32.015625 C 21.800781 -33.304688 20.238281 -33.953125 17.875 -33.953125 L 17.359375 -33.953125 C 15.972656 -33.953125 14.769531 -33.601562 13.75 -32.90625 C 12.726562 -32.207031 12.128906 -31.21875 11.953125 -29.9375 L 11.859375 -29.15625 C 11.753906 -28.363281 11.851562 -27.628906 12.15625 -26.953125 C 12.46875 -26.273438 13.125 -25.675781 14.125 -25.15625 C 15.132812 -24.632812 16.613281 -24.1875 18.5625 -23.8125 C 22.75 -23.050781 25.8125 -21.664062 27.75 -19.65625 C 29.695312 -17.644531 30.460938 -15.046875 30.046875 -11.859375 L 29.890625 -10.65625 C 29.398438 -6.875 27.863281 -4.039062 25.28125 -2.15625 C 22.707031 -0.269531 19.289062 0.671875 15.03125 0.671875 C 9.894531 0.671875 6.101562 -0.460938 3.65625 -2.734375 C 1.21875 -5.003906 0.273438 -8.300781 0.828125 -12.625 L 0.984375 -13.828125 L 9.40625 -13.828125 C 9.0625 -11.222656 9.414062 -9.367188 10.46875 -8.265625 C 11.53125 -7.160156 13.03125 -6.609375 14.96875 -6.609375 L 15.484375 -6.609375 C 18.984375 -6.609375 20.925781 -7.941406 21.3125 -10.609375 L 21.421875 -11.390625 C 21.585938 -12.703125 21.191406 -13.828125 20.234375 -14.765625 C 19.285156 -15.703125 17.375 -16.445312 14.5 -17 Z M 14.5 -17 "/></g></g></g><g fill="#000000" fill-opacity="1"><g transform="translate(769.636916, 1151.051257)"><g><path d="M 25.890625 -40.546875 L 34.3125 -40.546875 L 29 0 L 20.578125 0 L 22.828125 -17.046875 L 11.015625 -17.046875 L 8.78125 0 L 0.359375 0 L 5.671875 -40.546875 L 14.09375 -40.546875 L 11.953125 -24.328125 L 23.75 -24.328125 Z M 25.890625 -40.546875 "/></g></g></g><g fill="#000000" fill-opacity="1"><g transform="translate(822.611109, 1151.051257)"><g><path d="M 19.546875 -41.21875 C 24.816406 -41.21875 28.628906 -39.628906 30.984375 -36.453125 C 33.335938 -33.285156 34.066406 -28.171875 33.171875 -21.109375 L 32.953125 -19.4375 C 32.367188 -14.757812 31.382812 -10.9375 30 -7.96875 C 28.613281 -5.007812 26.75 -2.828125 24.40625 -1.421875 C 22.0625 -0.0234375 19.125 0.671875 15.59375 0.671875 C 10.320312 0.671875 6.515625 -0.910156 4.171875 -4.078125 C 1.835938 -7.253906 1.101562 -12.375 1.96875 -19.4375 L 2.1875 -21.109375 C 2.769531 -25.816406 3.753906 -29.644531 5.140625 -32.59375 C 6.523438 -35.539062 8.394531 -37.710938 10.75 -39.109375 C 13.113281 -40.515625 16.046875 -41.21875 19.546875 -41.21875 Z M 15.546875 -6.609375 L 16.0625 -6.609375 C 18.625 -6.609375 20.519531 -7.722656 21.75 -9.953125 C 22.976562 -12.191406 23.851562 -15.351562 24.375 -19.4375 L 24.59375 -21.109375 C 25.113281 -25.191406 25.0625 -28.351562 24.4375 -30.59375 C 23.8125 -32.832031 22.195312 -33.953125 19.59375 -33.953125 L 19.078125 -33.953125 C 16.515625 -33.953125 14.617188 -32.832031 13.390625 -30.59375 C 12.160156 -28.351562 11.285156 -25.191406 10.765625 -21.109375 L 10.546875 -19.4375 C 10.023438 -15.351562 10.078125 -12.191406 10.703125 -9.953125 C 11.328125 -7.722656 12.941406 -6.609375 15.546875 -6.609375 Z M 15.546875 -6.609375 "/></g></g></g><g fill="#000000" fill-opacity="1"><g transform="translate(876.105138, 1151.051257)"><g><path d="M 10.703125 -14.5625 L 8.78125 0 L 0.359375 0 L 5.671875 -40.546875 L 19.34375 -40.546875 C 21.144531 -40.546875 22.84375 -40.351562 24.4375 -39.96875 C 26.03125 -39.59375 27.414062 -38.9375 28.59375 -38 C 29.769531 -37.0625 30.617188 -35.773438 31.140625 -34.140625 C 31.660156 -32.515625 31.765625 -30.457031 31.453125 -27.96875 L 31.296875 -26.765625 C 30.953125 -24.097656 30.273438 -21.957031 29.265625 -20.34375 C 28.265625 -18.738281 27.050781 -17.519531 25.625 -16.6875 C 24.207031 -15.851562 22.679688 -15.289062 21.046875 -15 C 19.421875 -14.707031 17.773438 -14.5625 16.109375 -14.5625 Z M 11.59375 -21.828125 L 16.890625 -21.828125 C 17.648438 -21.828125 18.453125 -21.945312 19.296875 -22.1875 C 20.148438 -22.4375 20.90625 -22.929688 21.5625 -23.671875 C 22.226562 -24.421875 22.648438 -25.523438 22.828125 -26.984375 L 22.921875 -27.765625 C 23.128906 -29.285156 23 -30.441406 22.53125 -31.234375 C 22.0625 -32.035156 21.4375 -32.570312 20.65625 -32.84375 C 19.882812 -33.125 19.113281 -33.265625 18.34375 -33.265625 L 13.15625 -33.265625 Z M 11.59375 -21.828125 "/></g></g></g><g fill="#000000" fill-opacity="1"><g transform="translate(926.272141, 1151.051257)"><g/></g></g><g fill="#000000" fill-opacity="1"><g transform="translate(955.177533, 1151.051257)"><g><path d="M 5.671875 -40.546875 L 19.078125 -40.546875 C 20.671875 -40.546875 22.210938 -40.390625 23.703125 -40.078125 C 25.191406 -39.765625 26.507812 -39.207031 27.65625 -38.40625 C 28.800781 -37.613281 29.648438 -36.476562 30.203125 -35 C 30.753906 -33.53125 30.875 -31.65625 30.5625 -29.375 L 30.40625 -28.171875 C 30.164062 -26.160156 29.628906 -24.59375 28.796875 -23.46875 C 27.960938 -22.34375 26.769531 -21.503906 25.21875 -20.953125 C 26.84375 -20.398438 28 -19.382812 28.6875 -17.90625 C 29.382812 -16.4375 29.59375 -14.570312 29.3125 -12.3125 L 29.15625 -11.125 C 28.851562 -8.625 28.222656 -6.640625 27.265625 -5.171875 C 26.316406 -3.703125 25.144531 -2.59375 23.75 -1.84375 C 22.363281 -1.101562 20.847656 -0.609375 19.203125 -0.359375 C 17.554688 -0.117188 15.867188 0 14.140625 0 L 0.359375 0 Z M 16.734375 -17.046875 L 10.96875 -17.046875 L 9.71875 -7.28125 L 15.28125 -7.28125 C 16.144531 -7.28125 16.96875 -7.382812 17.75 -7.59375 C 18.53125 -7.800781 19.1875 -8.210938 19.71875 -8.828125 C 20.257812 -9.453125 20.597656 -10.375 20.734375 -11.59375 L 20.84375 -12.375 C 21.082031 -14.144531 20.785156 -15.363281 19.953125 -16.03125 C 19.128906 -16.707031 18.054688 -17.046875 16.734375 -17.046875 Z M 18.09375 -33.265625 L 13.15625 -33.265625 L 11.953125 -24.375 L 16.953125 -24.375 C 17.640625 -24.375 18.335938 -24.476562 19.046875 -24.6875 C 19.765625 -24.894531 20.390625 -25.285156 20.921875 -25.859375 C 21.460938 -26.429688 21.800781 -27.273438 21.9375 -28.390625 L 22.046875 -29.15625 C 22.253906 -30.75 21.921875 -31.832031 21.046875 -32.40625 C 20.179688 -32.976562 19.195312 -33.265625 18.09375 -33.265625 Z M 18.09375 -33.265625 "/></g></g></g><g fill="#000000" fill-opacity="1"><g transform="translate(1006.488259, 1151.051257)"><g><path d="M 10.703125 -14.5625 L 8.78125 0 L 0.359375 0 L 5.671875 -40.546875 L 19.34375 -40.546875 C 21.144531 -40.546875 22.84375 -40.351562 24.4375 -39.96875 C 26.03125 -39.59375 27.414062 -38.9375 28.59375 -38 C 29.769531 -37.0625 30.617188 -35.773438 31.140625 -34.140625 C 31.660156 -32.515625 31.765625 -30.457031 31.453125 -27.96875 L 31.296875 -26.765625 C 30.847656 -23.441406 29.898438 -20.921875 28.453125 -19.203125 C 27.015625 -17.492188 25.34375 -16.289062 23.4375 -15.59375 L 27.765625 0 L 18.921875 0 L 15.328125 -14.5625 Z M 11.59375 -21.828125 L 16.890625 -21.828125 C 17.648438 -21.828125 18.453125 -21.945312 19.296875 -22.1875 C 20.148438 -22.4375 20.90625 -22.929688 21.5625 -23.671875 C 22.226562 -24.421875 22.648438 -25.523438 22.828125 -26.984375 L 22.921875 -27.765625 C 23.128906 -29.285156 23 -30.441406 22.53125 -31.234375 C 22.0625 -32.035156 21.4375 -32.570312 20.65625 -32.84375 C 19.882812 -33.125 19.113281 -33.265625 18.34375 -33.265625 L 13.15625 -33.265625 Z M 11.59375 -21.828125 "/></g></g></g><g fill="#000000" fill-opacity="1"><g transform="translate(1057.383061, 1151.051257)"><g><path d="M 13.625 -40.65625 L 25.21875 -40.65625 L 30.046875 0 L 21 0 L 20.21875 -8.734375 L 10.34375 -8.734375 L 7.21875 0 L -1.8125 0 Z M 18.25 -31.25 L 12.890625 -16.015625 L 19.546875 -16.015625 Z M 18.25 -31.25 "/></g></g></g><g fill="#000000" fill-opacity="1"><g transform="translate(1109.213623, 1151.051257)"><g><path d="M 5.671875 -40.546875 L 14.453125 -40.546875 L 24.21875 -15.390625 L 25.109375 -23.8125 L 27.296875 -40.546875 L 35.34375 -40.546875 L 30.046875 0 L 21.265625 0 L 11.484375 -25.15625 L 10.609375 -16.734375 L 8.421875 0 L 0.359375 0 Z M 5.671875 -40.546875 "/></g></g></g><g fill="#000000" fill-opacity="1"><g transform="translate(1163.227443, 1151.051257)"><g><path d="M 32.640625 -21.109375 L 32.4375 -19.4375 C 31.84375 -14.625 30.75 -10.796875 29.15625 -7.953125 C 27.5625 -5.109375 25.429688 -3.070312 22.765625 -1.84375 C 20.097656 -0.613281 16.804688 0 12.890625 0 L 0.359375 0 L 5.671875 -40.546875 L 17.515625 -40.546875 C 21.398438 -40.546875 24.5625 -39.921875 27 -38.671875 C 29.445312 -37.429688 31.144531 -35.390625 32.09375 -32.546875 C 33.050781 -29.703125 33.234375 -25.890625 32.640625 -21.109375 Z M 9.71875 -7.28125 L 13 -7.28125 C 15.351562 -7.28125 17.253906 -7.691406 18.703125 -8.515625 C 20.160156 -9.347656 21.296875 -10.65625 22.109375 -12.4375 C 22.929688 -14.226562 23.515625 -16.5625 23.859375 -19.4375 L 24.0625 -21.109375 C 24.550781 -25.128906 24.335938 -28.160156 23.421875 -30.203125 C 22.503906 -32.242188 20.398438 -33.265625 17.109375 -33.265625 L 13.15625 -33.265625 Z M 9.71875 -7.28125 "/></g></g></g><g fill="#000000" fill-opacity="1"><g transform="translate(570.846604, 1223.801251)"><g><path d="M 5.671875 -40.546875 L 19.078125 -40.546875 C 20.671875 -40.546875 22.210938 -40.390625 23.703125 -40.078125 C 25.191406 -39.765625 26.507812 -39.207031 27.65625 -38.40625 C 28.800781 -37.613281 29.648438 -36.476562 30.203125 -35 C 30.753906 -33.53125 30.875 -31.65625 30.5625 -29.375 L 30.40625 -28.171875 C 30.164062 -26.160156 29.628906 -24.59375 28.796875 -23.46875 C 27.960938 -22.34375 26.769531 -21.503906 25.21875 -20.953125 C 26.84375 -20.398438 28 -19.382812 28.6875 -17.90625 C 29.382812 -16.4375 29.59375 -14.570312 29.3125 -12.3125 L 29.15625 -11.125 C 28.851562 -8.625 28.222656 -6.640625 27.265625 -5.171875 C 26.316406 -3.703125 25.144531 -2.59375 23.75 -1.84375 C 22.363281 -1.101562 20.847656 -0.609375 19.203125 -0.359375 C 17.554688 -0.117188 15.867188 0 14.140625 0 L 0.359375 0 Z M 16.734375 -17.046875 L 10.96875 -17.046875 L 9.71875 -7.28125 L 15.28125 -7.28125 C 16.144531 -7.28125 16.96875 -7.382812 17.75 -7.59375 C 18.53125 -7.800781 19.1875 -8.210938 19.71875 -8.828125 C 20.257812 -9.453125 20.597656 -10.375 20.734375 -11.59375 L 20.84375 -12.375 C 21.082031 -14.144531 20.785156 -15.363281 19.953125 -16.03125 C 19.128906 -16.707031 18.054688 -17.046875 16.734375 -17.046875 Z M 18.09375 -33.265625 L 13.15625 -33.265625 L 11.953125 -24.375 L 16.953125 -24.375 C 17.640625 -24.375 18.335938 -24.476562 19.046875 -24.6875 C 19.765625 -24.894531 20.390625 -25.285156 20.921875 -25.859375 C 21.460938 -26.429688 21.800781 -27.273438 21.9375 -28.390625 L 22.046875 -29.15625 C 22.253906 -30.75 21.921875 -31.832031 21.046875 -32.40625 C 20.179688 -32.976562 19.195312 -33.265625 18.09375 -33.265625 Z M 18.09375 -33.265625 "/></g></g></g><g fill="#000000" fill-opacity="1"><g transform="translate(622.157296, 1223.801251)"><g><path d="M 15.234375 0.671875 C 9.722656 0.671875 5.960938 -0.476562 3.953125 -2.78125 C 1.941406 -5.082031 1.210938 -8.4375 1.765625 -12.84375 L 5.40625 -40.546875 L 13.828125 -40.546875 L 10.234375 -13.09375 C 9.960938 -10.976562 10.164062 -9.367188 10.84375 -8.265625 C 11.519531 -7.160156 13.050781 -6.609375 15.4375 -6.609375 C 17.832031 -6.609375 19.546875 -7.144531 20.578125 -8.21875 C 21.617188 -9.289062 22.28125 -10.914062 22.5625 -13.09375 L 26.140625 -40.546875 L 34.5625 -40.546875 L 30.9375 -12.84375 C 30.550781 -9.925781 29.828125 -7.460938 28.765625 -5.453125 C 27.710938 -3.441406 26.109375 -1.914062 23.953125 -0.875 C 21.804688 0.152344 18.898438 0.671875 15.234375 0.671875 Z M 15.234375 0.671875 "/></g></g></g><g fill="#000000" fill-opacity="1"><g transform="translate(675.131488, 1223.801251)"><g><path d="M 14.34375 -40.546875 L 9.046875 0 L 0.625 0 L 5.921875 -40.546875 Z M 14.34375 -40.546875 "/></g></g></g><g fill="#000000" fill-opacity="1"><g transform="translate(708.351601, 1223.801251)"><g><path d="M 23.75 0 L 0.359375 0 L 5.671875 -40.546875 L 14.09375 -40.546875 L 9.71875 -7.28125 L 24.6875 -7.28125 Z M 23.75 0 "/></g></g></g><g fill="#000000" fill-opacity="1"><g transform="translate(753.944001, 1223.801251)"><g><path d="M 32.640625 -21.109375 L 32.4375 -19.4375 C 31.84375 -14.625 30.75 -10.796875 29.15625 -7.953125 C 27.5625 -5.109375 25.429688 -3.070312 22.765625 -1.84375 C 20.097656 -0.613281 16.804688 0 12.890625 0 L 0.359375 0 L 5.671875 -40.546875 L 17.515625 -40.546875 C 21.398438 -40.546875 24.5625 -39.921875 27 -38.671875 C 29.445312 -37.429688 31.144531 -35.390625 32.09375 -32.546875 C 33.050781 -29.703125 33.234375 -25.890625 32.640625 -21.109375 Z M 9.71875 -7.28125 L 13 -7.28125 C 15.351562 -7.28125 17.253906 -7.691406 18.703125 -8.515625 C 20.160156 -9.347656 21.296875 -10.65625 22.109375 -12.4375 C 22.929688 -14.226562 23.515625 -16.5625 23.859375 -19.4375 L 24.0625 -21.109375 C 24.550781 -25.128906 24.335938 -28.160156 23.421875 -30.203125 C 22.503906 -32.242188 20.398438 -33.265625 17.109375 -33.265625 L 13.15625 -33.265625 Z M 9.71875 -7.28125 "/></g></g></g><g fill="#000000" fill-opacity="1"><g transform="translate(806.918193, 1223.801251)"><g><path d="M 14.34375 -40.546875 L 9.046875 0 L 0.625 0 L 5.921875 -40.546875 Z M 14.34375 -40.546875 "/></g></g></g><g fill="#000000" fill-opacity="1"><g transform="translate(840.138307, 1223.801251)"><g><path d="M 5.671875 -40.546875 L 14.453125 -40.546875 L 24.21875 -15.390625 L 25.109375 -23.8125 L 27.296875 -40.546875 L 35.34375 -40.546875 L 30.046875 0 L 21.265625 0 L 11.484375 -25.15625 L 10.609375 -16.734375 L 8.421875 0 L 0.359375 0 Z M 5.671875 -40.546875 "/></g></g></g><g fill="#000000" fill-opacity="1"><g transform="translate(894.152195, 1223.801251)"><g><path d="M 16.328125 0.671875 C 12.992188 0.671875 10.140625 -0.0195312 7.765625 -1.40625 C 5.390625 -2.789062 3.679688 -4.960938 2.640625 -7.921875 C 1.609375 -10.890625 1.382812 -14.726562 1.96875 -19.4375 L 2.1875 -21.109375 C 3.082031 -28.140625 4.941406 -33.25 7.765625 -36.4375 C 10.597656 -39.625 14.523438 -41.21875 19.546875 -41.21875 C 24.816406 -41.21875 28.566406 -40.019531 30.796875 -37.625 C 33.035156 -35.238281 33.859375 -31.640625 33.265625 -26.828125 L 33.0625 -25.15625 L 24.59375 -25.15625 C 24.96875 -28.070312 24.789062 -30.265625 24.0625 -31.734375 C 23.34375 -33.210938 21.851562 -33.953125 19.59375 -33.953125 L 19.078125 -33.953125 C 16.753906 -33.953125 14.90625 -32.832031 13.53125 -30.59375 C 12.164062 -28.351562 11.242188 -25.207031 10.765625 -21.15625 L 10.546875 -19.4375 C 10.066406 -15.351562 10.273438 -12.191406 11.171875 -9.953125 C 12.078125 -7.722656 13.8125 -6.609375 16.375 -6.609375 L 16.890625 -6.609375 C 18.171875 -6.609375 19.269531 -6.734375 20.1875 -6.984375 C 21.113281 -7.242188 21.851562 -7.582031 22.40625 -8 L 23.28125 -14.65625 L 17.9375 -14.65625 L 18.875 -21.9375 L 32.640625 -21.9375 L 30.3125 -4 C 29.09375 -2.894531 27.28125 -1.835938 24.875 -0.828125 C 22.46875 0.167969 19.617188 0.671875 16.328125 0.671875 Z M 16.328125 0.671875 "/></g></g></g></svg>